HIERARCHY
ROOT Hips
{
  OFFSET 263.056 91.6644 -274.608
  CHANNELS 6 Xposition Yposition Zposition Zrotation Xrotation Yrotation
  JOINT LeftUpLeg
  {
    OFFSET 8.64259 1.95398 -2.38835
    CHANNELS 3 Zrotation Xrotation Yrotation
    JOINT LeftLeg
    {
      OFFSET 43.7702 0 0
      CHANNELS 3 Zrotation Xrotation Yrotation
      JOINT LeftFoot
      {
        OFFSET 40.6238 0 0
        CHANNELS 3 Zrotation Xrotation Yrotation
        JOINT LeftToeBase
        {
          OFFSET 12.7242 0 0
          CHANNELS 3 Zrotation Xrotation Yrotation
          End Site
          {
            OFFSET 0 0 0
          }
        }
      }
    }
  }
  JOINT RightUpLeg
  {
    OFFSET -8.2249 1.95398 -2.59336
    CHANNELS 3 Zrotation Xrotation Yrotation
    JOINT RightLeg
    {
      OFFSET 43.5653 0 0
      CHANNELS 3 Zrotation Xrotation Yrotation
      JOINT RightFoot
      {
        OFFSET 40.6238 0 0
        CHANNELS 3 Zrotation Xrotation Yrotation
        JOINT RightToeBase
        {
          OFFSET 12.7242 0 0
          CHANNELS 3 Zrotation Xrotation Yrotation
          End Site
          {
            OFFSET 0 0 0
          }
        }
      }
    }
  }
  JOINT Spine
  {
    OFFSET 0.165834 0.87714 6.61349
    CHANNELS 3 Zrotation Xrotation Yrotation
    JOINT Spine1
    {
      OFFSET 7.38963 1.71661e-005 0
      CHANNELS 3 Zrotation Xrotation Yrotation
      JOINT Spine2
      {
        OFFSET 11.9445 1.14441e-005 0
        CHANNELS 3 Zrotation Xrotation Yrotation
        JOINT Spine3
        {
          OFFSET 14.7254 4.19617e-005 0
          CHANNELS 3 Zrotation Xrotation Yrotation
          JOINT Spine4
          {
            OFFSET 10.9679 0 0
            CHANNELS 3 Zrotation Xrotation Yrotation
            JOINT RightShoulder
            {
              OFFSET 2.46616 -1.6653 3.69651
              CHANNELS 3 Zrotation Xrotation Yrotation
              JOINT RightArm
              {
                OFFSET 13.0012 0 0
                CHANNELS 3 Zrotation Xrotation Yrotation
                JOINT RightForeArm
                {
                  OFFSET 28.7848 1.52588e-005 0
                  CHANNELS 3 Zrotation Xrotation Yrotation
                  JOINT RightHand
                  {
                    OFFSET 26.5688 1.52588e-005 0
                    CHANNELS 3 Zrotation Xrotation Yrotation
                    End Site
                    {
                      OFFSET 0 0 0
                    }
                  }
                }
              }
            }
            JOINT LeftShoulder
            {
              OFFSET 2.38034 -1.29275 -3.7523
              CHANNELS 3 Zrotation Xrotation Yrotation
              JOINT LeftArm
              {
                OFFSET 16.3182 6.10352e-005 0
                CHANNELS 3 Zrotation Xrotation Yrotation
                JOINT LeftForeArm
                {
                  OFFSET 27.0901 0 0
                  CHANNELS 3 Zrotation Xrotation Yrotation
                  JOINT LeftHand
                  {
                    OFFSET 24.5451 1.52588e-005 0
                    CHANNELS 3 Zrotation Xrotation Yrotation
                    End Site
                    {
                      OFFSET 0 0 0
                    }
                  }
                }
              }
            }
            JOINT Neck
            {
              OFFSET 5.0226 -0.0266342 0
              CHANNELS 3 Zrotation Xrotation Yrotation
              JOINT Head
              {
                OFFSET 6.69364 2.86102e-005 0
                CHANNELS 3 Zrotation Xrotation Yrotation
                End Site
                {
                  OFFSET 0 0 0
                }
              }
            }
          }
        }
      }
    }
  }
}
MOTION
Frames:	14
Frame Time:	0.0416667
-92.1304 90.9432 -94.3972 67.9158 -55.1748 70.9664 -170.886 46.5949 89.5388 -27.7011 9.66078 -4.44779 57.8286 -0.567514 6.1258 49.9006 28.2202 15.0196 176.066 -5.55709 87.6775 -19.6148 -12.439 -3.87905 63.5957 -2.08445 -1.21483 57.4932 4.19422 12.5849 1.43245 8.33624 -89.0975 10.1814 3.26614 1.51753 -1.48617 3.32976 1.37218 -24.0379 2.65911 2.42927 -4.02531 2.65914 2.42927 86.3589 -40.0942 -109.643 25.0244 -7.08385 -11.8229 -20.4913 5.25582 -97.0875 -19.9977 -1.22711 2.42127 -100.131 -41.9026 60.5718 -46.7878 10.5477 34.2026 -3.07224 -2.46498 -50.7776 27.4113 1.77547 2.63561 15.2345 -1.07088 3.68156 3.76827 -2.143 -1.84872 
-85.9448 89.3027 -88.4966 63.6018 -55.7434 67.1498 -165.801 50.2772 86.8219 -38.1748 9.95996 -6.98659 60.7986 2.63895 8.40635 47.8438 23.3342 8.57609 176.67 -5.82322 86.2092 -21.9326 -12.8393 -4.8939 54.5368 0.553523 0.540211 61.701 6.51576 19.1124 1.59331 8.32726 -88.7561 10.1819 3.74228 2.15296 -1.48521 3.83338 1.98603 -24.035 2.92249 3.17824 -4.02233 2.92246 3.17823 86.5491 -39.8958 -109.39 26.0603 -4.7442 -9.50012 -21.4545 6.13788 -102.924 -22.5422 -1.50829 3.2129 -99.9141 -41.2611 60.6342 -46.8441 8.83282 35.8684 -2.40202 -2.85603 -53.3561 25.6986 1.78871 3.13722 15.9225 -1.9173 1.37995 4.91347 -2.38387 -2.08228 
-78.9806 88.1396 -82.1856 59.8528 -54.3002 65.3965 -163.83 51.5978 84.9189 -48.345 7.72243 -7.14533 68.0616 9.93212 10.1279 41.7048 14.1415 -1.57522 178.223 -3.10171 88.3045 -27.6204 -10.2502 -4.80851 37.9478 4.84005 4.96103 50.7624 4.96509 22.3377 1.49944 8.24808 -88.6279 10.3357 3.615 2.41226 -1.33213 3.71764 2.25073 -23.8748 2.72329 3.38702 -3.86213 2.72327 3.387 86.1777 -42.1613 -109.197 26.7583 -6.18115 -4.14476 -19.8574 6.29772 -103.636 -23.0728 -1.3028 1.83774 -100.223 -41.9223 60.4373 -44.3208 7.5066 33.9657 -2.16297 -3.58998 -54.1308 26.8785 1.73222 2.59991 17.3168 -2.05144 0.127006 5.23932 -2.23901 -2.93679 
-72.325 87.0906 -76.0825 59.7603 -52.4154 66.0465 -164.769 49.603 83.3736 -54.5776 8.1193 -5.79366 70.0289 14.2872 14.3636 45.2858 16.801 -7.5272 -178.796 7.79575 86.7386 -47.9641 -0.242748 -6.10014 30.8834 5.16717 6.18142 27.5963 -0.838125 6.97559 1.16721 8.40884 -88.5322 10.0146 2.99374 2.66578 -1.65537 3.10812 2.53144 -24.1834 2.0547 3.44177 -4.17075 2.05469 3.44175 84.0531 -45.2691 -111.513 26.9549 -10.1104 3.70205 -17.1516 6.04275 -98.4383 -24.7965 -1.82857 3.84346 -101.855 -42.6343 58.2235 -39.8698 4.2249 30.412 -1.11245 -4.41823 -56.6892 27.4755 1.90006 3.09243 17.7333 -1.62928 -0.214331 7.44469 -1.83865 -3.48032 
-65.9401 86.3055 -69.941 61.3715 -49.6211 66.1448 -166.202 44.3983 80.8428 -56.7149 9.71756 -4.92335 70.4195 17.4566 18.0868 50.2957 21.6438 -7.24948 -177.642 21.8601 89.8213 -71.1888 5.47908 -5.97621 35.6437 3.0493 3.58294 24.505 -0.690091 4.19815 0.61505 8.68022 -88.3056 9.47466 1.98911 3.20954 -2.1985 2.12836 3.11899 -24.7055 0.933275 3.65836 -4.69286 0.933289 3.65838 82.104 -47.8459 -113.575 29.4707 -13.364 11.1345 -12.7322 0.0738329 -87.1056 -24.4853 -1.22551 0.893991 -103.628 -42.554 55.4685 -34.1534 0.955659 24.8736 -1.03658 -5.4035 -61.3384 28.783 2.0525 3.30049 18.0839 -1.16367 -1.24865 8.81417 -1.07427 -2.97968 
-59.2131 86.42 -63.8784 61.386 -47.2318 65.5131 -167.37 37.1352 79.8326 -53.348 11.6747 -5.06864 68.397 18.5221 21.3762 55.0688 26.9578 -4.89873 -176.558 37.1856 89.6723 -86.9313 6.51721 -5.6814 34.6935 3.20423 3.79543 26.8398 -0.596856 5.96031 0.16029 8.70758 -88.2349 9.42918 1.11365 3.41522 -2.24563 1.26277 3.36296 -24.7449 0.0364774 3.59182 -4.7322 0.036471 3.59181 80.5692 -49.9389 -115.074 32.788 -15.832 18.9342 -7.95133 -1.75535 -73.0523 -27.2405 -1.11582 -0.225499 -103.989 -42.8048 55.0406 -27.3217 -0.0117871 16.4309 2.63895 -3.2233 -65.726 29.8431 2.40334 4.25077 18.7338 -0.719833 -1.33582 8.29684 -0.626388 -3.22159 
-51.7854 87.2759 -58.0168 64.6489 -44.8217 70.2888 -170.501 27.0272 82.3461 -47.5116 15.6366 -4.00626 66.9658 19.0877 22.9999 55.2145 28.5116 -0.947512 -179.058 48.8276 92.6165 -94.105 6.59849 -4.91021 36.7084 2.93533 3.37522 30.4467 -0.0884624 4.07537 -0.248305 8.73978 -88.6173 9.38706 0.12653 2.73052 -2.28676 0.246522 2.72232 -24.7997 -0.699684 2.64245 -4.7871 -0.699671 2.64246 78.3375 -51.7583 -117.608 36.3107 -16.5946 29.5209 -1.95787 -3.12597 -63.2212 -25.9493 -0.833508 -1.39687 -102.605 -41.6119 56.588 -24.8502 -4.71281 11.1073 4.73845 -3.36926 -76.1727 31.3442 2.82771 5.25869 17.1533 -0.0183962 -2.28453 7.96282 0.398393 -2.35618 
-43.5022 89.4623 -51.805 67.1165 -40.8794 75.7122 -173.378 16.0123 85.5602 -38.2666 19.714 -1.68828 64.1381 14.3775 18.6555 55.935 29.8419 0.525611 175.02 56.4111 96.9538 -91.6786 4.473 -3.68153 42.4592 2.57301 2.65139 31.9883 0.109515 1.87633 -0.876028 8.62489 -89.272 9.63472 -1.41756 1.55775 -2.03645 -1.34763 1.61862 -24.574 -1.8202 1.05969 -4.56135 -1.8202 1.05969 77.5697 -53.4278 -118.019 38.5371 -17.9076 39.5909 0.345552 -4.03427 -59.0815 -23.4081 -0.777822 -1.29634 -100.312 -40.4515 59.6495 -26.0039 -10.354 9.46842 8.41306 0.0906447 -91.7144 30.4131 3.19161 6.75353 16.3095 1.46899 -2.21469 6.21017 1.92263 -1.29476 
-34.6492 92.0343 -44.7563 67.8412 -41.6309 79.9569 -173.29 4.34078 93.6612 -25.4634 23.6401 -0.197838 53.549 -0.320425 7.19921 62.1011 37.7537 3.39501 172.333 58.4955 101.369 -80.3295 5.81314 -1.63116 43.6621 2.80936 2.84124 35.5366 0.397464 6.33953 -1.01046 8.45454 -89.842 9.9702 -1.94199 0.472515 -1.69938 -1.91932 0.557545 -24.2464 -1.99417 -0.133208 -4.2338 -1.99419 -0.133235 75.9502 -54.5907 -119.804 39.7929 -16.7444 48.456 1.23801 -3.83271 -58.1389 -21.5556 -0.781307 -0.957984 -98.6051 -40.2538 62.2839 -25.9418 -11.3789 9.08534 9.65704 -3.42643 -104.343 31.3328 3.45528 7.29969 13.1639 3.32026 -2.39841 6.07415 3.88749 0.784328 
-26.324 94.3147 -37.1146 70.5247 -40.0974 81.4866 -173.79 -8.78223 93.4666 -8.12269 29.5587 0.464258 33.4414 -15.1947 -5.73132 47.5139 23.2323 9.6285 173.809 56.2994 98.6725 -65.5678 3.10139 0.707836 48.6394 2.63704 2.41201 28.0901 -0.239235 2.85725 -1.40738 8.38639 -90.018 10.1058 -2.8127 0.199694 -1.56212 -2.80117 0.323386 -24.1209 -2.74258 -0.655524 -4.10824 -2.74257 -0.655531 76.3874 -53.9848 -119.451 40.564 -13.3566 54.0038 0.799734 -2.73564 -58.4657 -18.6184 -0.627932 -1.285 -98.7193 -39.7566 61.8877 -26.0422 -10.8628 10.7984 11.4342 -5.13261 -115.235 30.7329 2.97122 5.90601 9.38399 4.35434 -2.45748 6.13843 5.02504 2.96099 
-17.8276 95.3574 -28.9544 68.9073 -41.2141 78.9875 -175.672 -10.5456 91.5504 -11.4134 27.0999 0.814913 29.3583 -17.0192 -6.09396 26.3675 -3.67228 5.8934 179.004 53.621 95.5974 -47.4057 -1.53795 1.07616 50.6595 2.92551 2.53665 32.9099 0.194182 3.6757 -1.48028 8.12509 -89.9376 10.632 -2.91939 0.387943 -1.03576 -2.8995 0.516154 -23.5969 -2.90089 -0.508145 -3.58424 -2.90091 -0.508159 76.9972 -53.5555 -118.773 39.731 -11.1348 55.1933 -0.164779 -2.0186 -59.9328 -17.9954 -0.423806 -2.48447 -98.0063 -38.9761 62.711 -27.1321 -8.19508 12.5137 13.1133 -8.00291 -121.914 29.2302 2.81905 5.88358 7.56063 4.7964 -3.39975 6.72845 5.71881 3.92355 
-9.73265 95.1954 -21.298 68.402 -42.9975 76.084 -175.698 -1.48304 90.7372 -36.6122 17.2715 0.901357 38.3039 -12.7537 -0.833639 29.182 -0.278997 6.49256 -179.236 48.8991 94.0449 -35.9117 0.69934 1.34677 53.6237 2.24131 1.90102 42.0484 1.04328 4.85667 -1.32104 8.03229 -89.8098 10.8178 -2.5426 0.615706 -0.850828 -2.51306 0.727062 -23.4059 -2.61003 -0.177446 -3.3933 -2.61003 -0.177444 78.7902 -53.2612 -116.356 37.4229 -9.67131 51.8769 0.908726 -0.812989 -60.3991 -18.0104 -0.285576 -3.4275 -98.2443 -38.9118 62.2972 -29.6574 -4.33744 12.9186 14.3496 -9.19283 -119.78 28.5079 3.03568 6.90768 7.24042 4.73043 -1.94487 6.43001 5.33398 3.77516 
-1.6676 94.0969 -14.1676 71.8362 -43.5909 77.5305 -174.745 5.86466 87.9441 -59.9738 14.3898 0.150271 41.3041 -11.2807 2.04421 33.1023 4.54309 9.55541 179.493 42.397 94.1474 -37.5106 3.97238 1.68105 56.6747 0.823629 0.734368 39.1221 0.744928 3.47193 -1.1498 8.28358 -89.8718 10.3123 -2.23191 0.44785 -1.35687 -2.21005 0.545691 -23.9074 -2.26329 -0.243989 -3.89471 -2.26329 -0.243998 78.3326 -53.9746 -116.723 33.6687 -7.64977 46.5132 1.19054 0.471797 -62.0976 -18.4124 -0.486046 -2.23771 -99.8143 -39.7598 60.1283 -31.3634 -2.15599 14.1033 13.7196 -7.08762 -110.81 29.8336 3.25775 7.18634 6.25963 4.22076 0.229015 7.12241 4.36306 3.08575 
6.36343 92.3745 -6.98692 75.0588 -43.2996 80.3347 -172.992 16.8861 90.1808 -80.1889 12.1028 0.0812324 43.7775 -9.07925 2.39922 34.5052 6.39933 9.58982 178.426 35.0983 95.5006 -43.7644 4.04003 1.37201 68.4641 -3.05435 -1.62297 35.1894 0.315948 11.9596 -0.912849 8.49849 -90.1031 9.87737 -1.86615 -0.0538867 -1.79224 -1.86676 0.028314 -24.3373 -1.76367 -0.612434 -4.32463 -1.76371 -0.612451 78.2092 -54.9556 -116.512 29.9749 -7.73991 39.3225 0.889793 0.595652 -64.9161 -19.2024 -0.697322 -1.09472 -101.04 -41.533 58.9874 -32.9773 -0.0670367 15.4733 8.81739 -4.64191 -98.5185 29.0393 2.69766 5.52246 5.71121 3.29664 1.8105 7.48804 3.10043 2.30152 
